<svg xmlns="http://www.w3.org/2000/svg" viewBox="0 0 428.41 87.25"><defs><style>.cls-1{fill:#0ea261;}.cls-1,.cls-2{fill-rule:evenodd;}.cls-2{fill:#087ac0;}.cls-3{fill:#fff;}</style></defs><title>Zasób 1</title><g id="Warstwa_2" data-name="Warstwa 2"><g id="Layer_1" data-name="Layer 1"><polyline class="cls-1" points="48.71 0.07 91.3 0.07 64.47 48.25 105.64 48.24 84.26 87.23 0 87.25 48.71 0.07"/><polyline class="cls-2" points="82.81 37.41 104.32 0.25 225.98 0.04 205.17 37.38 166.78 37.39 138.69 87.22 95.56 87.23 123.47 37.4 82.81 37.41"/><polyline class="cls-1" points="173.59 45.9 151.18 85.22 376.56 85.17 399.69 45.85 173.59 45.9"/><polyline class="cls-2" points="239.1 0.03 217.93 37.39 406.67 37.35 428.41 0 239.1 0.03"/><path class="cls-3" d="M239.64,65.76l3-5.73h2.2l1.81-3.39,9.68-3.21L252.86,60h3.84l-3.05,5.73H249.8l-3.19,6a1.89,1.89,0,0,0-.32,1.45c.12.32.5.47,1.1.47a5.35,5.35,0,0,0,.8-.09c.32-.06.69-.15,1.09-.25L246.2,79.1c-1.24.31-2.35.55-3.34.7a17.37,17.37,0,0,1-2.66.25c-2,0-3.19-.5-3.66-1.49s-.19-2.47.86-4.43l4.45-8.37h-2.2"/><path class="cls-3" d="M265.2,62.12l1.43-1a12.13,12.13,0,0,1,2.19-1.32,4.15,4.15,0,0,1,1.49-.29,2.77,2.77,0,0,1,1,.15,1.79,1.79,0,0,1,.68.44L268,67.48a7.81,7.81,0,0,0-1.38-.47,5.12,5.12,0,0,0-1.25-.16,3.48,3.48,0,0,0-2.33.94,10.5,10.5,0,0,0-2.15,3l-2.36,4.42-2.36,4.41h-8.27l5.21-9.76L258.36,60h8l-1.12,2.09"/><path class="cls-3" d="M276.88,70.89h-1a4.18,4.18,0,0,0-2.22.59A4.42,4.42,0,0,0,272,73.2a2.08,2.08,0,0,0-.33,1.5c.12.37.45.56,1,.56a2.66,2.66,0,0,0,1.77-.7,7.35,7.35,0,0,0,1.6-2.15l.81-1.51m-7-5.22a12.5,12.5,0,0,1,4.89-4.55,14.59,14.59,0,0,1,6.85-1.57,12.56,12.56,0,0,1,3.84.49,3.74,3.74,0,0,1,2.11,1.39,3,3,0,0,1,.26,2.31A19.47,19.47,0,0,1,286,68l-3.1,5.78-3.1,5.77h-7.23c.26-.64.54-1.29.81-1.93a11.66,11.66,0,0,1-3.11,1.82,9.76,9.76,0,0,1-3.41.59c-1.67,0-2.7-.54-3.1-1.63s-.07-2.59.94-4.48a11.89,11.89,0,0,1,5.19-5.29,20.17,20.17,0,0,1,8.82-1.59h.23l.65-1.22a2.66,2.66,0,0,0,.47-1.52c-.07-.3-.36-.45-.89-.46a2.51,2.51,0,0,0-1.44.43,4.17,4.17,0,0,0-1.16,1.38Z"/><path class="cls-3" d="M281.77,79.57l4.52-8.42,4.53-8.44.47-1c.29-.6.57-1.16.84-1.7H300l-1.64,3a15.43,15.43,0,0,1,3.91-2.62,9.33,9.33,0,0,1,3.86-.9q2.91,0,3.26,1.91c.24,1.26-.37,3.24-1.79,5.9l-3.3,6.11L301,79.56h-8.11l3.25-6c1.08-2,2.17-4,3.26-6a3.38,3.38,0,0,0,.56-1.72c0-.37-.35-.55-.88-.55a2.28,2.28,0,0,0-1.43.59,5.13,5.13,0,0,0-1.25,1.6l-3.28,6.09-3.27,6.08h-8.07"/><path class="cls-3" d="M305.89,73.36l7.35,0c-.07.12-.13.25-.2.37a2.06,2.06,0,0,0-.37,1.51c.12.33.5.49,1.12.5a2.81,2.81,0,0,0,1.51-.43,3,3,0,0,0,1.09-1.16c.3-.55.35-.95.16-1.21s-.72-.48-1.63-.65c-2.79-.53-4.54-1.27-5.22-2.23s-.54-2.31.42-4.09A11.23,11.23,0,0,1,315,61.21a16.67,16.67,0,0,1,7.65-1.66c2.62,0,4.41.53,5.36,1.58s.93,2.48-.05,4.29a2,2,0,0,1-.15.25l-.15.25h-6.85l.17-.31a2,2,0,0,0,.35-1.41c-.11-.32-.44-.47-1-.47a2.7,2.7,0,0,0-2.46,1.49c-.46.85-.07,1.43,1.18,1.69l.37.08,2.23.47a10.11,10.11,0,0,1,1.12.28,7.85,7.85,0,0,1,1.74,1,1.66,1.66,0,0,1,.53.9A3.58,3.58,0,0,1,325,71.3a8.48,8.48,0,0,1-.84,2.08,11.87,11.87,0,0,1-5,5,16.14,16.14,0,0,1-7.61,1.7c-3.15,0-5.22-.48-6.24-1.43s-1-2.41.08-4.37c.12-.23.23-.41.3-.55a3.31,3.31,0,0,1,.21-.33"/><path class="cls-3" d="M322.66,79.56l5.29-9.76L333.23,60h8.3l-5.3,9.78-5.29,9.76h-8.29m12-22.15,3.19-5.91h8.31l-3.21,5.91Z"/><path class="cls-3" d="M339.77,65.74,342.88,60h2.2l1.84-3.39,9.72-3.2L353.07,60h3.82l-3.12,5.73H350l-3.25,6a1.91,1.91,0,0,0-.35,1.44c.12.32.49.47,1.09.47a5.1,5.1,0,0,0,.8-.1c.32-.06.7-.14,1.09-.25l-3.13,5.78c-1.24.32-2.36.55-3.35.71a17,17,0,0,1-2.66.24c-2,0-3.19-.5-3.65-1.49s-.16-2.47.9-4.43q2.27-4.17,4.53-8.36h-2.2"/><path class="cls-3" d="M258.39,31.79l7.43-13.67L273.29,4.4h8.32q-3.73,6.86-7.47,13.71l-7.45,13.66h-8.29"/><path class="cls-3" d="M289,12.24c3.15,0,5.17.88,6,2.67s.41,4.2-1.28,7.3a19.78,19.78,0,0,1-6.7,7.31,16.37,16.37,0,0,1-8.94,2.68c-3.18,0-5.18-.89-6-2.64s-.41-4.2,1.28-7.29A19.8,19.8,0,0,1,280,14.91,16.24,16.24,0,0,1,289,12.24m-2.75,5a2.8,2.8,0,0,0-1.94,1.14,21.47,21.47,0,0,0-2.49,3.83,16.6,16.6,0,0,0-1.73,3.86c-.13.71.12,1.06.76,1.07a2.71,2.71,0,0,0,1.9-1.07,21.93,21.93,0,0,0,2.49-3.87,16.07,16.07,0,0,0,1.72-3.87C287.07,17.64,286.84,17.27,286.22,17.27Z"/><path class="cls-3" d="M289.66,31.74l4.5-8.2,4.51-8.22c0-.07.2-.38.47-1s.56-1.14.83-1.66h7.85l-1.63,3a15.36,15.36,0,0,1,3.91-2.56,9.46,9.46,0,0,1,3.85-.88c1.94,0,3,.62,3.28,1.85s-.35,3.15-1.77,5.74l-3.28,6-3.27,5.94h-8.11L304,25.84l3.24-5.9a3.2,3.2,0,0,0,.55-1.67c0-.36-.34-.53-.87-.54a2.34,2.34,0,0,0-1.45.58,5.15,5.15,0,0,0-1.25,1.56L301,25.81l-3.26,5.92h-8.06"/><path class="cls-3" d="M327.22,22.3a11,11,0,0,0,1.33-3.13c.09-.66-.16-1-.76-1a2.68,2.68,0,0,0-1.84,1,14.91,14.91,0,0,0-2.15,3.13,10.91,10.91,0,0,0-1.33,3.18c-.09.68.15,1,.73,1a2.72,2.72,0,0,0,1.87-1,15.7,15.7,0,0,0,2.17-3.17m4.2-7,3-5.47,3-5.48h7.92q-3.43,6.19-6.85,12.37L331.7,29.09c-.07.13-.24.41-.46.86l-.89,1.74h-8l1.46-2.63a12.36,12.36,0,0,1-3.24,2.35,7.81,7.81,0,0,1-3.33.76c-2.38,0-3.74-.85-4-2.59s.43-4.21,2.21-7.44a24.3,24.3,0,0,1,5.81-7.31,10.28,10.28,0,0,1,6.46-2.61,4.12,4.12,0,0,1,2.72.77A3.1,3.1,0,0,1,331.41,15.33Z"/><path class="cls-3" d="M352.36,12.2c3.15,0,5.14.88,6,2.65s.37,4.2-1.35,7.28a20.09,20.09,0,0,1-6.73,7.29,16.43,16.43,0,0,1-8.93,2.67c-3.15,0-5.14-.87-6-2.63s-.36-4.18,1.35-7.28a20.06,20.06,0,0,1,6.76-7.32,16.27,16.27,0,0,1,8.9-2.66m-2.79,5a2.88,2.88,0,0,0-1.94,1.14,21.77,21.77,0,0,0-2.53,3.83A16.62,16.62,0,0,0,343.37,26c-.14.71.1,1.06.73,1.06A2.71,2.71,0,0,0,346,26a21.86,21.86,0,0,0,2.51-3.85,16,16,0,0,0,1.75-3.86C350.42,17.58,350.19,17.22,349.57,17.21Z"/><path class="cls-3" d="M352.87,31.65l4.56-8.18L362,15.26l.48-1c.29-.58.56-1.13.83-1.65h7.8l-1.65,3a15.52,15.52,0,0,1,3.92-2.56,9.58,9.58,0,0,1,3.84-.87c1.92,0,3,.62,3.23,1.85s-.37,3.15-1.81,5.73l-3.32,5.94L372,31.62h-8.09l3.28-5.86,3.28-5.88a3.18,3.18,0,0,0,.57-1.67c0-.36-.34-.54-.87-.54a2.37,2.37,0,0,0-1.45.58,5.23,5.23,0,0,0-1.25,1.56l-3.3,5.92-3.29,5.91h-8"/></g></g></svg>